<svg id="Layer_1" data-name="Layer 1" xmlns="http://www.w3.org/2000/svg" viewBox="0 0 10.06 42.43"><defs><style>.cls-1{fill:none;stroke:#000;stroke-miterlimit:10;}</style></defs><title>arrow</title><path class="cls-1" d="M43.44,35.51" transform="translate(-45.18 -28.73)"/><path d="M50.11,71.16q-.2-10.3-.31-20.62c0-3.43-.15-6.87-.11-10.31s.16-6.87.39-10.3h.27c.22,3.43.31,6.87.36,10.31s-.08,6.87-.13,10.3q-.15,10.31-.37,20.62Z" transform="translate(-45.18 -28.73)"/><path d="M55,36.77a.49.49,0,0,1-.69-.16l-4.1-6.45L46.1,36.6a.5.5,0,0,1-.69.16.51.51,0,0,1-.16-.7L49.8,29a.46.46,0,0,1,.42-.23.48.48,0,0,1,.42.23l4.52,7.12a.5.5,0,0,1-.15.69Z" transform="translate(-45.18 -28.73)"/></svg>