<svg xmlns="http://www.w3.org/2000/svg" xmlns:xlink="http://www.w3.org/1999/xlink" viewBox="0 0 111.57 122.37"><defs><style>.cls-1{fill:none;}.cls-2{fill:#7d7d7d;}.cls-3{clip-path:url(#clip-path);}.cls-4{fill:url(#linear-gradient);}.cls-5{clip-path:url(#clip-path-2);}.cls-6{fill:url(#linear-gradient-2);}.cls-7{font-size:12px;fill:#fff;font-family:HiraMinPro-W3-83pv-RKSJ-H, Hiragino Mincho Pro;}</style><clipPath id="clip-path" transform="translate(1.13 18.52)"><path class="cls-1" d="M45.55,21.2l-.24.33a1.64,1.64,0,0,0,.36,2.29l4,2.92A1.63,1.63,0,0,0,52,26.39l.23-.32a14.8,14.8,0,1,1,3.18,20.69L28.13,26.62a1.62,1.62,0,0,0-2.28.35l-2.93,4a1.64,1.64,0,0,0,.34,2.29L50.5,53.39a23,23,0,1,0-5-32.19"/></clipPath><linearGradient id="linear-gradient" x1="-928.77" y1="2.21" x2="-927.73" y2="2.21" gradientTransform="matrix(43.99, 0, 0, -43.99, 40897.82, 132.31)" gradientUnits="userSpaceOnUse"><stop offset="0" stop-color="#a1a1a1"/><stop offset="1" stop-color="#5b5b5b"/></linearGradient><clipPath id="clip-path-2" transform="translate(1.13 18.52)"><path class="cls-1" d="M42.14,23.21a23,23,0,1,0,22,36.37l.24-.32A1.63,1.63,0,0,0,64.08,57l-4-2.93a1.64,1.64,0,0,0-2.29.35l-.24.33A14.8,14.8,0,1,1,54.39,34L81.62,54.17a1.63,1.63,0,0,0,2.28-.35l2.93-4a1.64,1.64,0,0,0-.35-2.29L59.25,27.4a22.84,22.84,0,0,0-13.57-4.47,22.32,22.32,0,0,0-3.54.28"/></clipPath><linearGradient id="linear-gradient-2" x1="-921.29" y1="34.26" x2="-920.25" y2="34.26" gradientTransform="matrix(0, 49.21, 49.21, 0, -1631.41, 45357.6)" gradientUnits="userSpaceOnUse"><stop offset="0" stop-color="#252525"/><stop offset="1" stop-color="#888"/></linearGradient></defs><title>Asset 9</title><g id="Layer_2" data-name="Layer 2"><g id="Vector_Graphics" data-name="Vector Graphics"><rect class="cls-1" x="1.13" y="18.52" width="109.75" height="103.84"/><path class="cls-2" d="M54.82,52l.06,0,0-.07-.11.12" transform="translate(1.13 18.52)"/><path class="cls-2" d="M54.87,51.92h0" transform="translate(1.13 18.52)"/><path class="cls-2" d="M54.87,51.92h0S54.88,51.91,54.87,51.92Z" transform="translate(1.13 18.52)"/><g class="cls-3"><rect class="cls-4" x="17.44" y="-5.02" width="75.31" height="80.36" transform="matrix(0.56, -0.83, 0.83, 0.56, -3.73, 79.7)"/></g><g class="cls-5"><rect class="cls-6" x="13.77" y="8.61" width="81.76" height="77.75" transform="translate(-16.22 58.45) rotate(-35)"/></g><text class="cls-7" transform="translate(33.19 104.88)">Despota</text></g></g></svg>