<svg xmlns="http://www.w3.org/2000/svg" viewBox="0 0 109.75 103.84"><defs><style>.cls-1{fill:none;}.cls-2,.cls-5{fill:#7d7d7d;}.cls-3{fill:#8c8c8c;}.cls-4{fill:#434343;}.cls-5{font-size:12px;font-family:Copperplate;}</style></defs><title>Asset 3</title><g id="Layer_2" data-name="Layer 2"><g id="Vector_Graphics" data-name="Vector Graphics"><rect class="cls-1" width="109.75" height="103.84"/><path class="cls-2" d="M62.3,36.53a15.52,15.52,0,0,0-15,23.73c5.25,8.32,17.22,9.44,24.14,2.54l-1.3-1.32a13.64,13.64,0,1,1,3.44-6l1.79.48A15.66,15.66,0,0,0,62.3,36.53"/><path class="cls-3" d="M74.18,65.59l1.3,1.32a21.27,21.27,0,0,1-33.17-26.2l1.58,1a19.41,19.41,0,0,0,30.29,23.9"/><path class="cls-3" d="M65.73,57l1.79,1.82A10,10,0,0,1,51,55.11c-2.56-7.63,4.93-15.19,12.61-12.57L62.77,45a7.43,7.43,0,0,0-9.45,9c1.58,5.46,8.52,6.91,12.41,3"/><path class="cls-2" d="M85.13,76.74l1.79,1.82A37.6,37.6,0,0,1,26.81,35,37.6,37.6,0,0,1,72.56,16.36l-.83,2.41A35,35,0,0,0,46.56,84.12a35.3,35.3,0,0,0,35.79-4.9c1-.79,1.9-1.61,2.78-2.48"/><path class="cls-3" d="M80.83,72.36l1.79,1.82a31.46,31.46,0,0,1-52.4-13.31,31.8,31.8,0,0,1,14.6-36.29l1.26,2.22A28.91,28.91,0,0,0,63,80.71a29.34,29.34,0,0,0,17.79-8.35"/><path class="cls-2" d="M57.56,49.43l.07,0,0-.07-.12.12"/><path class="cls-2" d="M57.68,49.31h0"/><path class="cls-2" d="M57.68,49.31Z"/><path class="cls-4" d="M66,75.5a24.25,24.25,0,0,1-17-45A24.23,24.23,0,0,1,80,66.19l1.35,1.34a26.07,26.07,0,1,0-2.44,2.83L77.56,69A24.61,24.61,0,0,1,66,75.5"/><path class="cls-2" d="M61.41,52.61,61,53l.11-.11a1.22,1.22,0,0,1-1.57,0l-.15-.17a1.22,1.22,0,0,1,.07-1.54,1.39,1.39,0,0,0,.17-.16h0a1.22,1.22,0,0,1,1.78.45l1.85-1.85a3.89,3.89,0,0,0-5.67-.17,3.76,3.76,0,1,0,5.58,5l-.63-.65Z"/><text class="cls-5" transform="translate(29.54 99.08)">CopyCat</text></g></g></svg>