<svg xmlns="http://www.w3.org/2000/svg" xmlns:xlink="http://www.w3.org/1999/xlink" viewBox="0 0 131.4 147.26"><defs><style>.cls-1{fill:none;}.cls-2{isolation:isolate;}.cls-3{clip-path:url(#clip-path);}.cls-4{fill:url(#radial-gradient);}.cls-5{opacity:0.4;mix-blend-mode:screen;}.cls-6{clip-path:url(#clip-path-2);}.cls-7{clip-path:url(#clip-path-3);}.cls-8{fill:url(#linear-gradient);}.cls-9{clip-path:url(#clip-path-4);}.cls-10{fill:url(#radial-gradient-2);}.cls-11{clip-path:url(#clip-path-5);}.cls-12{clip-path:url(#clip-path-6);}.cls-13{fill:url(#linear-gradient-2);}.cls-14{clip-path:url(#clip-path-7);}.cls-15{fill:url(#radial-gradient-3);}.cls-16{fill:#fff;}</style><clipPath id="clip-path" transform="translate(3.6 25.98)"><path class="cls-1" d="M23,51.92a39.08,39.08,0,0,0,2.79,14.51c5.14-1.1,10.38-2.35,15.76-3.63,4.13-1,8.21-2,12.33-2.89a122.17,122.17,0,0,1,26.85-3.37,72.59,72.59,0,0,1,19.63,2.57l.19.07A39.11,39.11,0,1,0,23,51.92"/></clipPath><radialGradient id="radial-gradient" cx="-925.25" cy="125.03" r="1.05" gradientTransform="matrix(30.36, 0, 0, -30.35, 28160.92, 3844.4)" gradientUnits="userSpaceOnUse"><stop offset="0" stop-color="#929292"/><stop offset="1" stop-color="#656565"/></radialGradient><clipPath id="clip-path-2" transform="translate(3.6 25.98)"><rect class="cls-1" x="26.43" y="16.25" width="71.35" height="46.17"/></clipPath><clipPath id="clip-path-3" transform="translate(3.6 25.98)"><path class="cls-1" d="M28,62.42a35.67,35.67,0,1,1,69.77-10.5c0,1,0,2-.13,3A78.11,78.11,0,0,0,80.72,53.1a125.91,125.91,0,0,0-27.61,3.45c-4,.9-7.8,1.81-12.37,2.9S32,61.54,28,62.42"/></clipPath><linearGradient id="linear-gradient" x1="-935.16" y1="148.85" x2="-934.11" y2="148.85" gradientTransform="matrix(0, 42.39, 42.39, 0, -6247.67, 39657.22)" gradientUnits="userSpaceOnUse"><stop offset="0" stop-color="#929292"/><stop offset="0.28" stop-color="#8c8c8c"/><stop offset="0.67" stop-color="#7a7a7a"/><stop offset="1" stop-color="#656565"/></linearGradient><clipPath id="clip-path-4" transform="translate(3.6 25.98)"><path class="cls-1" d="M65.94,75.5c-4.08,1-8.15,2-12.26,2.87a143.23,143.23,0,0,1-17.42,2.9,39.11,39.11,0,0,0,61-12.18c-10,1.34-20.38,3.8-31.31,6.41"/></clipPath><radialGradient id="radial-gradient-2" cx="-918.85" cy="117.52" r="1.05" gradientTransform="matrix(18.86, 0, 0, -18.86, 17402.01, 2303.15)" xlink:href="#radial-gradient"/><clipPath id="clip-path-5" transform="translate(3.6 25.98)"><rect class="cls-1" x="45.52" y="73.65" width="44.9" height="13.94"/></clipPath><clipPath id="clip-path-6" transform="translate(3.6 25.98)"><path class="cls-1" d="M62.1,87.59a35.51,35.51,0,0,1-16.58-4.1c2.86-.48,5.82-1.06,8.92-1.76,4.08-.92,8.15-1.89,12.3-2.89,7.84-1.87,15.89-3.79,23.68-5.19A35.42,35.42,0,0,1,62.1,87.59"/></clipPath><linearGradient id="linear-gradient-2" x1="-933.13" y1="178.33" x2="-932.09" y2="178.33" gradientTransform="matrix(0, 11.93, 11.93, 0, -2060.17, 11210.46)" xlink:href="#linear-gradient"/><clipPath id="clip-path-7" transform="translate(3.6 25.98)"><path class="cls-1" d="M55,64.73c-4.1.93-8.16,1.89-12.18,2.85-11.85,2.83-23.22,5.55-34.25,6.83a67.35,67.35,0,0,0,18.3,2.39A117.34,117.34,0,0,0,52.6,73.55c4.08-.92,8.13-1.89,12.14-2.84C76.6,67.87,88,65.15,99,63.87a67.35,67.35,0,0,0-18.3-2.39A117.86,117.86,0,0,0,55,64.73"/></clipPath><radialGradient id="radial-gradient-3" cx="-920" cy="137.11" r="1.05" gradientTransform="matrix(31, 0, 0, -31, 28579.75, 4345.02)" gradientUnits="userSpaceOnUse"><stop offset="0" stop-color="#b1b1b1"/><stop offset="1" stop-color="#8c8c8c"/></radialGradient></defs><title>Asset 8</title><g class="cls-2"><g id="Layer_2" data-name="Layer 2"><g id="Vector_Graphics" data-name="Vector Graphics"><rect class="cls-1" x="3.6" y="25.98" width="109.75" height="103.84"/><g class="cls-3"><rect class="cls-4" x="16.14" y="-7.45" width="91.92" height="94.15" transform="translate(-5.07 86.06) rotate(-48.66)"/></g><g class="cls-5"><g class="cls-6"><g class="cls-7"><rect class="cls-8" x="25.27" y="14.42" width="73.67" height="49.84" transform="translate(1.62 29.28) rotate(-3)"/></g></g></g><g class="cls-9"><rect class="cls-10" x="38.38" y="49.91" width="56.76" height="60.28" transform="translate(-33.85 103.28) rotate(-48.66)"/></g><g class="cls-5"><g class="cls-11"><g class="cls-12"><rect class="cls-13" x="45.18" y="72.48" width="45.57" height="16.27" transform="translate(-0.53 29.65) rotate(-3)"/></g></g></g><g class="cls-14"><rect class="cls-15" x="12.13" y="87.46" width="90.49" height="15.32"/></g><path class="cls-16" d="M87.62,39.94a6.39,6.39,0,1,0-6.39,6.38,6.39,6.39,0,0,0,6.39-6.38" transform="translate(3.6 25.98)"/><path class="cls-16" d="M49.09,27a2.74,2.74,0,1,0-2.73,2.73A2.73,2.73,0,0,0,49.09,27" transform="translate(3.6 25.98)"/><path class="cls-16" d="M73.26,24.29A2.74,2.74,0,1,0,70.52,27a2.74,2.74,0,0,0,2.74-2.73" transform="translate(3.6 25.98)"/><path class="cls-16" d="M63.72,50A2.74,2.74,0,1,0,61,52.77,2.74,2.74,0,0,0,63.72,50" transform="translate(3.6 25.98)"/><path class="cls-16" d="M50.37,41.4a4.92,4.92,0,1,0-4.92,4.92,4.92,4.92,0,0,0,4.92-4.92" transform="translate(3.6 25.98)"/><path class="cls-16" d="M61.65,32.93a1.84,1.84,0,1,0-1.84,1.84,1.84,1.84,0,0,0,1.84-1.84" transform="translate(3.6 25.98)"/><path class="cls-16" d="M33.54,54.62a1.84,1.84,0,1,0-1.84,1.84,1.85,1.85,0,0,0,1.84-1.84" transform="translate(3.6 25.98)"/><path class="cls-16" d="M98,50a1.84,1.84,0,1,0-1.84,1.84A1.84,1.84,0,0,0,98,50" transform="translate(3.6 25.98)"/></g></g></g></svg>