<svg xmlns="http://www.w3.org/2000/svg" xmlns:xlink="http://www.w3.org/1999/xlink" viewBox="0 0 109.75 112.88"><defs><style>.cls-1{fill:url(#linear-gradient);}.cls-2{fill:url(#linear-gradient-2);}.cls-3{fill:url(#linear-gradient-3);}.cls-13,.cls-4{fill:none;}.cls-5{isolation:isolate;}.cls-6{clip-path:url(#clip-path);}.cls-7{fill:url(#linear-gradient-4);}.cls-8{mix-blend-mode:overlay;}.cls-9{clip-path:url(#clip-path-2);}.cls-10{clip-path:url(#clip-path-3);}.cls-11{mask:url(#mask);}.cls-12{fill:url(#linear-gradient-5);}.cls-13{stroke:#fff;stroke-miterlimit:10;stroke-width:1.43px;}.cls-14{clip-path:url(#clip-path-4);}.cls-15{fill:url(#linear-gradient-6);}.cls-16{clip-path:url(#clip-path-5);}.cls-17{clip-path:url(#clip-path-6);}.cls-18{mask:url(#mask-2);}.cls-19{fill:url(#linear-gradient-7);}.cls-20{clip-path:url(#clip-path-7);}.cls-21{fill:url(#linear-gradient-8);}.cls-22{clip-path:url(#clip-path-8);}.cls-23{clip-path:url(#clip-path-9);}.cls-24{mask:url(#mask-3);}.cls-25{fill:url(#linear-gradient-9);}.cls-26{font-size:12px;fill:#f2f2f2;font-family:EthnocentricLt-Regular, Ethnocentric;}</style><linearGradient id="linear-gradient" x1="-919.88" y1="371.68" x2="-918.83" y2="371.68" gradientTransform="matrix(46.9, 0, 0, -46.9, 43172.43, 17456)" gradientUnits="userSpaceOnUse"><stop offset="0"/><stop offset="0.05" stop-color="#0f0f0f"/><stop offset="0.32" stop-color="#636363"/><stop offset="0.56" stop-color="#a6a6a6"/><stop offset="0.76" stop-color="#d6d6d6"/><stop offset="0.91" stop-color="#f4f4f4"/><stop offset="1" stop-color="#fff"/></linearGradient><linearGradient id="linear-gradient-2" x1="-910.21" y1="372.94" x2="-909.17" y2="372.94" gradientTransform="matrix(30.68, 0, 0, -30.68, 27965.62, 11488.92)" xlink:href="#linear-gradient"/><linearGradient id="linear-gradient-3" x1="-919.88" y1="371.64" x2="-918.83" y2="371.64" gradientTransform="matrix(46.9, 0, 0, -46.9, 43172.43, 17498.78)" xlink:href="#linear-gradient"/><clipPath id="clip-path" transform="translate(0 9.04)"><path class="cls-4" d="M28.23,7.14A1.66,1.66,0,0,0,26.8,9.62L42,35.87l1.65,2.87a5,5,0,0,0,4.3,2.48h33.6a1.65,1.65,0,0,0,1.43-2.48L66.13,9.62a5,5,0,0,0-4.29-2.48Z"/></clipPath><linearGradient id="linear-gradient-4" x1="-929.23" y1="372.46" x2="-928.19" y2="372.46" gradientTransform="matrix(0, 103.11, 103.11, 0, -38350.51, 95778.81)" gradientUnits="userSpaceOnUse"><stop offset="0" stop-color="#606060"/><stop offset="0.36" stop-color="#5c5c5c"/><stop offset="1" stop-color="#5b5b5b"/></linearGradient><clipPath id="clip-path-2" transform="translate(0 9.04)"><rect class="cls-4" x="29.09" y="9.29" width="51.57" height="29.78"/></clipPath><clipPath id="clip-path-3" transform="translate(0 9.04)"><path class="cls-4" d="M47.91,38.35a2.07,2.07,0,0,1-1.81-1L30.33,10H61.84a2.11,2.11,0,0,1,1.81,1.05l15.77,27.3Z"/></clipPath><mask id="mask" x="30.33" y="19.04" width="49.09" height="28.35" maskUnits="userSpaceOnUse"><g transform="translate(0 9.04)"><rect class="cls-1" x="30.33" y="10" width="49.09" height="28.35"/></g></mask><linearGradient id="linear-gradient-5" x1="-919.88" y1="371.68" x2="-918.83" y2="371.68" gradientTransform="matrix(46.9, 0, 0, -46.9, 43172.43, 17465.04)" gradientUnits="userSpaceOnUse"><stop offset="0" stop-color="#202020"/><stop offset="1" stop-color="#202020"/></linearGradient><clipPath id="clip-path-4" transform="translate(0 9.04)"><path class="cls-4" d="M53.44,15,36.62,44.09a4.94,4.94,0,0,0,0,5L53.44,78.19a1.65,1.65,0,0,0,2.86,0L71.47,51.92l1.66-2.87a5,5,0,0,0,0-5l-1.66-2.87L56.3,15a1.61,1.61,0,0,0-1.43-.83,1.63,1.63,0,0,0-1.43.83"/></clipPath><linearGradient id="linear-gradient-6" x1="-929.02" y1="372.48" x2="-927.97" y2="372.48" gradientTransform="matrix(0, 105.28, 105.28, 0, -39160.19, 97820.24)" xlink:href="#linear-gradient-4"/><clipPath id="clip-path-5" transform="translate(0 9.04)"><rect class="cls-4" x="38.1" y="16.77" width="33.54" height="59.61"/></clipPath><clipPath id="clip-path-6" transform="translate(0 9.04)"><path class="cls-4" d="M39.1,47.62a2.08,2.08,0,0,1,0-2.1L54.88,18.2,70.65,45.52a2.13,2.13,0,0,1,0,2.1L54.88,74.94Z"/></clipPath><mask id="mask-2" x="38.72" y="27.23" width="32.3" height="56.75" maskUnits="userSpaceOnUse"><g transform="translate(0 9.04)"><rect class="cls-2" x="38.72" y="18.2" width="32.3" height="56.75"/></g></mask><linearGradient id="linear-gradient-7" x1="-910.21" y1="372.94" x2="-909.17" y2="372.94" gradientTransform="matrix(30.68, 0, 0, -30.68, 27965.62, 11497.96)" xlink:href="#linear-gradient-5"/><clipPath id="clip-path-7" transform="translate(0 9.04)"><path class="cls-4" d="M51.23,51.92H47.91a5,5,0,0,0-4.29,2.48L42,57.28,26.8,83.52A1.66,1.66,0,0,0,28.23,86H61.84a5,5,0,0,0,4.29-2.48L83,54.4a1.66,1.66,0,0,0-1.44-2.48Z"/></clipPath><linearGradient id="linear-gradient-8" x1="-929.39" y1="372.37" x2="-928.34" y2="372.37" gradientTransform="matrix(0, 105.46, 105.46, 0, -39213.79, 98005.68)" xlink:href="#linear-gradient-4"/><clipPath id="clip-path-8" transform="translate(0 9.04)"><rect class="cls-4" x="29.09" y="54.07" width="51.57" height="29.78"/></clipPath><clipPath id="clip-path-9" transform="translate(0 9.04)"><path class="cls-4" d="M30.33,83.14,46.1,55.83a2.1,2.1,0,0,1,1.81-1H79.42L63.65,82.09a2.11,2.11,0,0,1-1.81,1Z"/></clipPath><mask id="mask-3" x="30.33" y="63.82" width="49.09" height="28.35" maskUnits="userSpaceOnUse"><g transform="translate(0 9.04)"><rect class="cls-3" x="30.33" y="54.78" width="49.09" height="28.35"/></g></mask><linearGradient id="linear-gradient-9" x1="-919.88" y1="371.64" x2="-918.83" y2="371.64" gradientTransform="matrix(46.9, 0, 0, -46.9, 43172.43, 17507.82)" xlink:href="#linear-gradient-5"/></defs><title>Asset 6</title><g class="cls-5"><g id="Layer_2" data-name="Layer 2"><g id="Vector_Graphics" data-name="Vector Graphics"><rect class="cls-4" y="9.04" width="109.75" height="103.84"/><g class="cls-6"><rect class="cls-7" x="30.13" y="-8.27" width="49.49" height="64.91" transform="translate(15.58 78.52) rotate(-72.84)"/></g><g class="cls-8"><g class="cls-9"><g class="cls-10"><g class="cls-11"><rect class="cls-12" x="30.33" y="19.04" width="49.09" height="28.35"/></g></g><path class="cls-13" d="M47.91,38.35a2.1,2.1,0,0,1-1.82-1L30.33,10H61.84a2.11,2.11,0,0,1,1.81,1.05l15.77,27.3Z" transform="translate(0 9.04)"/></g></g><g class="cls-14"><rect class="cls-15" x="18.1" y="18.81" width="73.55" height="55.8" transform="translate(-5.94 94.4) rotate(-72.84)"/></g><g class="cls-8"><g class="cls-16"><g class="cls-17"><g class="cls-18"><rect class="cls-19" x="38.72" y="27.23" width="32.3" height="56.75"/></g></g><path class="cls-13" d="M39.1,47.62a2.08,2.08,0,0,1,0-2.1L54.87,18.2,70.65,45.52a2.13,2.13,0,0,1,0,2.1L54.87,74.94Z" transform="translate(0 9.04)"/></g></g><g class="cls-20"><rect class="cls-21" x="30.12" y="36.5" width="49.5" height="64.91" transform="translate(-27.21 110.09) rotate(-72.84)"/></g><g class="cls-8"><g class="cls-22"><g class="cls-23"><g class="cls-24"><rect class="cls-25" x="30.33" y="63.82" width="49.09" height="28.35"/></g></g><path class="cls-13" d="M30.33,83.14,46.09,55.83a2.13,2.13,0,0,1,1.82-1H79.42L63.65,82.09a2.11,2.11,0,0,1-1.81,1Z" transform="translate(0 9.04)"/></g></g><text class="cls-26" transform="translate(32.91 109.74)">edish</text></g></g></g></svg>