<svg xmlns="http://www.w3.org/2000/svg" xmlns:xlink="http://www.w3.org/1999/xlink" viewBox="0 0 109.75 103.84"><defs><style>.cls-1{fill:none;}.cls-2{fill:#a5a5a5;}.cls-3,.cls-6{fill:#fff;}.cls-4{clip-path:url(#clip-path);}.cls-5{fill:url(#linear-gradient);}.cls-6{font-size:12px;font-family:EthnocentricLt-Regular, Ethnocentric;}.cls-7{letter-spacing:-0.05em;}</style><clipPath id="clip-path"><path class="cls-1" d="M46.36,44.7A44.21,44.21,0,0,0,31.91,61.6l-.47,1,.94.53a30.83,30.83,0,0,0,10.45,3.64,33,33,0,0,0,4.09.36h.68a30.94,30.94,0,0,0,30.33-26,26,26,0,0,0,.3-2.77l.07-1.07-1.07-.14a43.15,43.15,0,0,0-4.67-.35h-1a43.84,43.84,0,0,0-25.21,8"/></clipPath><linearGradient id="linear-gradient" x1="-918.95" y1="250.27" x2="-917.91" y2="250.27" gradientTransform="matrix(44.77, 0, 0, -44.77, 41173.86, 11256.98)" gradientUnits="userSpaceOnUse"><stop offset="0" stop-color="#c7c7c7"/><stop offset="1" stop-color="#4b4b4b"/></linearGradient></defs><title>Asset 7</title><g id="Layer_2" data-name="Layer 2"><g id="Vector_Graphics" data-name="Vector Graphics"><rect class="cls-1" width="109.75" height="103.84"/><path class="cls-2" d="M48.31,74a38.16,38.16,0,0,1-5.83-.45,37.6,37.6,0,0,1-18-8l-.62-.5.27-.76A51,51,0,0,1,80.22,30.46c1.5.23,3.06.55,4.62.94l.78.19.09.8A37.69,37.69,0,0,1,48.31,74Z"/><path class="cls-3" d="M72.41,31a50.81,50.81,0,0,1,7.73.6c1.53.24,3,.55,4.52.92A37.06,37.06,0,0,1,84.43,42,36.49,36.49,0,0,1,25.28,64.61,50,50,0,0,1,72.41,31m0-2.3a52.15,52.15,0,0,0-49.3,35.18l-.52,1.51,1.24,1a38.65,38.65,0,0,0,18.58,8.29A38.77,38.77,0,0,0,86.7,42.32a39.33,39.33,0,0,0,.25-10l-.17-1.6-1.56-.39c-1.6-.4-3.19-.72-4.73-1a53.54,53.54,0,0,0-8.08-.63"/><g class="cls-4"><rect class="cls-5" x="31.44" y="36.74" width="46.86" height="30.36"/></g><path class="cls-3" d="M71.71,37.89h1a43.52,43.52,0,0,1,4.55.34,26.37,26.37,0,0,1-.29,2.66A29.67,29.67,0,0,1,47.74,66h-.65a30.67,30.67,0,0,1-3.94-.35,29.76,29.76,0,0,1-10.06-3.5A43.11,43.11,0,0,1,71.71,37.89m0-2.3h0A45.4,45.4,0,0,0,31,61.1L30.08,63,32,64.1a31.69,31.69,0,0,0,10.83,3.77,30.48,30.48,0,0,0,4.25.37h.7a32.09,32.09,0,0,0,31.47-27c.15-1,.26-1.91.32-2.86l.13-2.16L77.52,36c-1.59-.2-3.2-.32-4.79-.36h-1"/><text class="cls-6" transform="translate(30.37 87.63)">vi<tspan class="cls-7" x="15.08" y="0">s</tspan><tspan x="25.36" y="0">ar</tspan></text></g></g></svg>