<?xml version="1.0" encoding="utf-8"?>
<!-- Generator: Adobe Illustrator 24.0.1, SVG Export Plug-In . SVG Version: 6.00 Build 0)  -->
<svg version="1.1" id="Layer_1" xmlns="http://www.w3.org/2000/svg" xmlns:xlink="http://www.w3.org/1999/xlink" x="0px" y="0px"
	 viewBox="0 0 538.9 231.7" style="enable-background:new 0 0 538.9 231.7;" xml:space="preserve">
<style type="text/css">
	.st0{enable-background:new    ;}
</style>
<title>todo</title>
<g class="st0">
	<path d="M125.8,53.6v76.5c0,33.4-27,60.6-60.3,60.6c-33.4,0-60.6-27.2-60.6-60.6c0-33.4,27.2-60.3,60.6-60.3c17.2,0,32.9,7.3,44,19
		V53.6H125.8z M65.5,86.1c-24.3,0-44.2,19.7-44.2,44c0,24.3,19.9,44.2,44.2,44.2c24.3,0,44-19.9,44-44.2
		C109.5,105.7,89.8,86.1,65.5,86.1z"/>
	<path d="M258.2,130.1c0,33.4-27,60.6-60.3,60.6c-33.4,0-60.6-27.2-60.6-60.6c0-33.4,27.2-60.3,60.6-60.3
		C231.2,69.7,258.2,96.7,258.2,130.1z M241.8,130.1c0-24.3-19.7-44-44-44c-24.3,0-44.2,19.7-44.2,44c0,24.3,19.9,44.2,44.2,44.2
		C222.2,174.3,241.8,154.4,241.8,130.1z"/>
	<path d="M269.7,53.6h16.4v51.9h104.1v16.4H286.1v8.2c0,24.3,19.7,44.2,44.2,44.2c21.4,0,39.3-15.5,43.3-36h16.6
		c-4,29.6-29.4,52.4-59.9,52.4c-33.6,0-60.6-27.2-60.6-60.6V53.6z"/>
	<path d="M522.5,130.1c0,33.4-27,60.6-60.3,60.6c-33.4,0-60.6-27.2-60.6-60.6c0-33.4,27.2-60.3,60.6-60.3
		C495.6,69.7,522.5,96.7,522.5,130.1z M506.2,130.1c0-24.3-19.7-44-44-44c-24.3,0-44.2,19.7-44.2,44c0,24.3,19.9,44.2,44.2,44.2
		C486.5,174.3,506.2,154.4,506.2,130.1z"/>
</g>
</svg>
